<svg xmlns="http://www.w3.org/2000/svg" xmlns:xlink="http://www.w3.org/1999/xlink" contentStyleType="text/css" data-diagram-type="DESCRIPTION" height="814px" preserveAspectRatio="none" style="width:269px;height:814px;background:#FFFFFF;" version="1.1" viewBox="0 0 269 814" width="269px" zoomAndPan="magnify"><defs/><g><!--cluster ??????--><g id="cluster_&#1055;&#1088;&#1086;&#1077;&#1082;&#1090;"><rect fill="transparent" height="801" rx="2.5" ry="2.5" style="stroke:#181818;stroke-width:1;" width="250" x="7" y="7"/><polygon fill="transparent" points="240,12,240,26,252,26,252,18,246,12,240,12" style="stroke:#181818;stroke-width:1;"/><line style="stroke:#181818;stroke-width:1;" x1="246" x2="246" y1="12" y2="18"/><line style="stroke:#181818;stroke-width:1;" x1="252" x2="246" y1="18" y2="18"/><text fill="#000000" font-family="sans-serif" font-size="14" font-weight="bold" lengthAdjust="spacing" textLength="48.8154" x="107.5923" y="23.5332">&#1055;&#1088;&#1086;&#1077;&#1082;&#1090;</text></g><!--cluster core--><g id="cluster_core"><rect fill="transparent" height="251" rx="2.5" ry="2.5" style="stroke:#181818;stroke-width:1;" width="202" x="31" y="51"/><polygon fill="transparent" points="216,56,216,70,228,70,228,62,222,56,216,56" style="stroke:#181818;stroke-width:1;"/><line style="stroke:#181818;stroke-width:1;" x1="222" x2="222" y1="56" y2="62"/><line style="stroke:#181818;stroke-width:1;" x1="228" x2="222" y1="62" y2="62"/><text fill="#000000" font-family="sans-serif" font-size="14" font-weight="bold" lengthAdjust="spacing" textLength="29.5723" x="117.2139" y="67.5332">core</text></g><!--cluster API V1--><g id="cluster_API V1"><path d="M55,186.5 L74.25,95 L189.75,95 L209,186.5 L189.75,278 L74.25,278 L55,186.5 " fill="transparent" style="stroke:#181818;stroke-width:1;"/><text fill="#000000" font-family="sans-serif" font-size="14" font-weight="bold" lengthAdjust="spacing" textLength="44.3516" x="109.8242" y="111.5332">API V1</text></g><!--cluster components--><g id="cluster_components"><rect fill="transparent" height="458" rx="2.5" ry="2.5" style="stroke:#181818;stroke-width:1;" width="202" x="31" y="326"/><rect fill="transparent" height="10" style="stroke:#181818;stroke-width:1;" width="15" x="213" y="331"/><rect fill="transparent" height="2" style="stroke:#181818;stroke-width:1;" width="4" x="211" y="333"/><rect fill="transparent" height="2" style="stroke:#181818;stroke-width:1;" width="4" x="211" y="337"/><text fill="#000000" font-family="sans-serif" font-size="14" font-weight="bold" lengthAdjust="spacing" textLength="83.2275" x="90.3862" y="353.5332">components</text></g><!--cluster task--><g id="cluster_task"><path d="M55,461.5 L74.25,370 L189.75,370 L209,461.5 L189.75,553 L74.25,553 L55,461.5 " fill="transparent" style="stroke:#181818;stroke-width:1;"/><text fill="#000000" font-family="sans-serif" font-size="14" font-weight="bold" lengthAdjust="spacing" textLength="28.0205" x="117.9897" y="386.5332">task</text></g><!--cluster notification--><g id="cluster_notification"><path d="M55,668.5 L74.25,577 L189.75,577 L209,668.5 L189.75,760 L74.25,760 L55,668.5 " fill="transparent" style="stroke:#181818;stroke-width:1;"/><text fill="#000000" font-family="sans-serif" font-size="14" font-weight="bold" lengthAdjust="spacing" textLength="75.4346" x="94.2827" y="593.5332">notification</text></g><!--entity interface--><g id="elem_interface"><rect fill="#F1F1F1" height="47.6094" rx="2.5" ry="2.5" style="stroke:#181818;stroke-width:0.5;" width="93.6963" x="85" y="131"/><rect fill="#F1F1F1" height="10" style="stroke:#181818;stroke-width:0.5;" width="15" x="158.6963" y="136"/><rect fill="#F1F1F1" height="2" style="stroke:#181818;stroke-width:0.5;" width="4" x="156.6963" y="138"/><rect fill="#F1F1F1" height="2" style="stroke:#181818;stroke-width:0.5;" width="4" x="156.6963" y="142"/><text fill="#000000" font-family="sans-serif" font-size="14" lengthAdjust="spacing" textLength="53.6963" x="100" y="165.5332">interface</text></g><!--entity infrastructure--><g id="elem_infrastructure"><rect fill="#F1F1F1" height="47.6094" rx="2.5" ry="2.5" style="stroke:#181818;stroke-width:0.5;" width="121.6963" x="71" y="214"/><rect fill="#F1F1F1" height="10" style="stroke:#181818;stroke-width:0.5;" width="15" x="172.6963" y="219"/><rect fill="#F1F1F1" height="2" style="stroke:#181818;stroke-width:0.5;" width="4" x="170.6963" y="221"/><rect fill="#F1F1F1" height="2" style="stroke:#181818;stroke-width:0.5;" width="4" x="170.6963" y="225"/><text fill="#000000" font-family="sans-serif" font-size="14" lengthAdjust="spacing" textLength="81.6963" x="86" y="248.5332">infrastructure</text></g><!--entity intr1--><g id="elem_intr1"><rect fill="#F1F1F1" height="47.6094" rx="2.5" ry="2.5" style="stroke:#181818;stroke-width:0.5;" width="93.6963" x="85" y="406"/><rect fill="#F1F1F1" height="10" style="stroke:#181818;stroke-width:0.5;" width="15" x="158.6963" y="411"/><rect fill="#F1F1F1" height="2" style="stroke:#181818;stroke-width:0.5;" width="4" x="156.6963" y="413"/><rect fill="#F1F1F1" height="2" style="stroke:#181818;stroke-width:0.5;" width="4" x="156.6963" y="417"/><text fill="#000000" font-family="sans-serif" font-size="14" lengthAdjust="spacing" textLength="53.6963" x="100" y="440.5332">interface</text></g><!--entity infr1--><g id="elem_infr1"><rect fill="#F1F1F1" height="47.6094" rx="2.5" ry="2.5" style="stroke:#181818;stroke-width:0.5;" width="121.6963" x="71" y="489"/><rect fill="#F1F1F1" height="10" style="stroke:#181818;stroke-width:0.5;" width="15" x="172.6963" y="494"/><rect fill="#F1F1F1" height="2" style="stroke:#181818;stroke-width:0.5;" width="4" x="170.6963" y="496"/><rect fill="#F1F1F1" height="2" style="stroke:#181818;stroke-width:0.5;" width="4" x="170.6963" y="500"/><text fill="#000000" font-family="sans-serif" font-size="14" lengthAdjust="spacing" textLength="81.6963" x="86" y="523.5332">infrastructure</text></g><!--entity intr2--><g id="elem_intr2"><rect fill="#F1F1F1" height="47.6094" rx="2.5" ry="2.5" style="stroke:#181818;stroke-width:0.5;" width="93.6963" x="85" y="613"/><rect fill="#F1F1F1" height="10" style="stroke:#181818;stroke-width:0.5;" width="15" x="158.6963" y="618"/><rect fill="#F1F1F1" height="2" style="stroke:#181818;stroke-width:0.5;" width="4" x="156.6963" y="620"/><rect fill="#F1F1F1" height="2" style="stroke:#181818;stroke-width:0.5;" width="4" x="156.6963" y="624"/><text fill="#000000" font-family="sans-serif" font-size="14" lengthAdjust="spacing" textLength="53.6963" x="100" y="647.5332">interface</text></g><!--entity infr2--><g id="elem_infr2"><rect fill="#F1F1F1" height="47.6094" rx="2.5" ry="2.5" style="stroke:#181818;stroke-width:0.5;" width="121.6963" x="71" y="696"/><rect fill="#F1F1F1" height="10" style="stroke:#181818;stroke-width:0.5;" width="15" x="172.6963" y="701"/><rect fill="#F1F1F1" height="2" style="stroke:#181818;stroke-width:0.5;" width="4" x="170.6963" y="703"/><rect fill="#F1F1F1" height="2" style="stroke:#181818;stroke-width:0.5;" width="4" x="170.6963" y="707"/><text fill="#000000" font-family="sans-serif" font-size="14" lengthAdjust="spacing" textLength="81.6963" x="86" y="730.5332">infrastructure</text></g><!--SRC=[bP1D2i8m44RtESMGJTRj3KHSk59Sk0ynROEQo7GAGWc85_4KRbnuXlP6fcX_e0ZjjmW9lCmylfDE2CW1cZGZE1ZKYeopJ2APH2g2wb7VgdVrh5xr7KfWGYXtlZYhBG5VRdOhM6pN74e68TqlvL0tDFoIwQjCdGKUODX7BTzcCD9OqXXcQFwVI53cX8MY0WUOP_tPuzqj7-piT4Zcnqao87C8BumcMdtvPC3xqNRhGbj6oQRmEGxnJ8TuL94GdlaF]--></g></svg>