<svg xmlns="http://www.w3.org/2000/svg" xmlns:xlink="http://www.w3.org/1999/xlink" contentStyleType="text/css" data-diagram-type="DESCRIPTION" height="1104px" preserveAspectRatio="none" style="width:533px;height:1104px;background:#FFFFFF;" version="1.1" viewBox="0 0 533 1104" width="533px" zoomAndPan="magnify"><defs/><g><!--cluster ??????--><g id="cluster_&#1055;&#1088;&#1086;&#1077;&#1082;&#1090;"><rect fill="transparent" height="1091" rx="2.5" ry="2.5" style="stroke:#181818;stroke-width:1;" width="514" x="7" y="7"/><polygon fill="transparent" points="504,12,504,26,516,26,516,18,510,12,504,12" style="stroke:#181818;stroke-width:1;"/><line style="stroke:#181818;stroke-width:1;" x1="510" x2="510" y1="12" y2="18"/><line style="stroke:#181818;stroke-width:1;" x1="516" x2="510" y1="18" y2="18"/><text fill="#000000" font-family="sans-serif" font-size="14" font-weight="bold" lengthAdjust="spacing" textLength="48.8154" x="239.5923" y="23.5332">&#1055;&#1088;&#1086;&#1077;&#1082;&#1090;</text></g><!--cluster API--><g id="cluster_API"><path d="M33.5,51 L57.8379,51 A3.75,3.75 0 0 1 60.3379,53.5 L67.3379,74.6094 L494.5,74.6094 A2.5,2.5 0 0 1 497,77.1094 L497,781.5 A2.5,2.5 0 0 1 494.5,784 L33.5,784 A2.5,2.5 0 0 1 31,781.5 L31,53.5 A2.5,2.5 0 0 1 33.5,51 " fill="transparent" style="stroke:#000000;stroke-width:1.5;"/><line style="stroke:#000000;stroke-width:1.5;" x1="31" x2="67.3379" y1="74.6094" y2="74.6094"/><text fill="#000000" font-family="sans-serif" font-size="14" font-weight="bold" lengthAdjust="spacing" textLength="23.3379" x="35" y="67.5332">API</text></g><!--cluster V1--><g id="cluster_V1"><path d="M57.5,95 L75.624,95 A3.75,3.75 0 0 1 78.124,97.5 L85.124,118.6094 L470.5,118.6094 A2.5,2.5 0 0 1 473,121.1094 L473,757.5 A2.5,2.5 0 0 1 470.5,760 L57.5,760 A2.5,2.5 0 0 1 55,757.5 L55,97.5 A2.5,2.5 0 0 1 57.5,95 " fill="transparent" style="stroke:#000000;stroke-width:1.5;"/><line style="stroke:#000000;stroke-width:1.5;" x1="55" x2="85.124" y1="118.6094" y2="118.6094"/><text fill="#000000" font-family="sans-serif" font-size="14" font-weight="bold" lengthAdjust="spacing" textLength="17.124" x="59" y="111.5332">V1</text></g><!--cluster components--><g id="cluster_components"><path d="M81.5,139 L165.7275,139 A3.75,3.75 0 0 1 168.2275,141.5 L175.2275,162.6094 L446.5,162.6094 A2.5,2.5 0 0 1 449,165.1094 L449,594.5 A2.5,2.5 0 0 1 446.5,597 L81.5,597 A2.5,2.5 0 0 1 79,594.5 L79,141.5 A2.5,2.5 0 0 1 81.5,139 " fill="transparent" style="stroke:#000000;stroke-width:1.5;"/><line style="stroke:#000000;stroke-width:1.5;" x1="79" x2="175.2275" y1="162.6094" y2="162.6094"/><text fill="#000000" font-family="sans-serif" font-size="14" font-weight="bold" lengthAdjust="spacing" textLength="83.2275" x="83" y="155.5332">components</text></g><!--cluster task--><g id="cluster_task"><path d="M103,274.5 L143.25,183 L384.75,183 L425,274.5 L384.75,366 L143.25,366 L103,274.5 " fill="transparent" style="stroke:#181818;stroke-width:1;"/><text fill="#000000" font-family="sans-serif" font-size="14" font-weight="bold" lengthAdjust="spacing" textLength="28.0205" x="249.9897" y="199.5332">task</text></g><!--cluster notification--><g id="cluster_notification"><path d="M103,481.5 L143.25,390 L384.75,390 L425,481.5 L384.75,573 L143.25,573 L103,481.5 " fill="transparent" style="stroke:#181818;stroke-width:1;"/><text fill="#000000" font-family="sans-serif" font-size="14" font-weight="bold" lengthAdjust="spacing" textLength="75.4346" x="226.2827" y="406.5332">notification</text></g><!--cluster CORE--><g id="cluster_CORE"><path d="M104.5,808 L145.9482,808 A3.75,3.75 0 0 1 148.4482,810.5 L155.4482,831.6094 L411.5,831.6094 A2.5,2.5 0 0 1 414,834.1094 L414,1071.5 A2.5,2.5 0 0 1 411.5,1074 L104.5,1074 A2.5,2.5 0 0 1 102,1071.5 L102,810.5 A2.5,2.5 0 0 1 104.5,808 " fill="transparent" style="stroke:#000000;stroke-width:1.5;"/><line style="stroke:#000000;stroke-width:1.5;" x1="102" x2="155.4482" y1="831.6094" y2="831.6094"/><text fill="#000000" font-family="sans-serif" font-size="14" font-weight="bold" lengthAdjust="spacing" textLength="40.4482" x="106" y="824.5332">CORE</text></g><!--entity interface--><g id="elem_interface"><rect fill="#F1F1F1" height="47.6094" rx="2.5" ry="2.5" style="stroke:#181818;stroke-width:0.5;" width="93.6963" x="119" y="696"/><rect fill="#F1F1F1" height="10" style="stroke:#181818;stroke-width:0.5;" width="15" x="192.6963" y="701"/><rect fill="#F1F1F1" height="2" style="stroke:#181818;stroke-width:0.5;" width="4" x="190.6963" y="703"/><rect fill="#F1F1F1" height="2" style="stroke:#181818;stroke-width:0.5;" width="4" x="190.6963" y="707"/><text fill="#000000" font-family="sans-serif" font-size="14" lengthAdjust="spacing" textLength="53.6963" x="134" y="730.5332">interface</text></g><!--entity infrastructure--><g id="elem_infrastructure"><rect fill="#F1F1F1" height="47.6094" rx="2.5" ry="2.5" style="stroke:#181818;stroke-width:0.5;" width="121.6963" x="105" y="613"/><rect fill="#F1F1F1" height="10" style="stroke:#181818;stroke-width:0.5;" width="15" x="206.6963" y="618"/><rect fill="#F1F1F1" height="2" style="stroke:#181818;stroke-width:0.5;" width="4" x="204.6963" y="620"/><rect fill="#F1F1F1" height="2" style="stroke:#181818;stroke-width:0.5;" width="4" x="204.6963" y="624"/><text fill="#000000" font-family="sans-serif" font-size="14" lengthAdjust="spacing" textLength="81.6963" x="120" y="647.5332">infrastructure</text></g><!--entity openapi--><g id="elem_openapi"><rect fill="#F1F1F1" height="47.6094" rx="2.5" ry="2.5" style="stroke:#181818;stroke-width:0.5;" width="89.8271" x="303" y="696"/><rect fill="#F1F1F1" height="10" style="stroke:#181818;stroke-width:0.5;" width="15" x="372.8271" y="701"/><rect fill="#F1F1F1" height="2" style="stroke:#181818;stroke-width:0.5;" width="4" x="370.8271" y="703"/><rect fill="#F1F1F1" height="2" style="stroke:#181818;stroke-width:0.5;" width="4" x="370.8271" y="707"/><text fill="#000000" font-family="sans-serif" font-size="14" lengthAdjust="spacing" textLength="49.8271" x="318" y="730.5332">openapi</text></g><!--entity intr1--><g id="elem_intr1"><rect fill="#F1F1F1" height="47.6094" rx="2.5" ry="2.5" style="stroke:#181818;stroke-width:0.5;" width="93.6963" x="119" y="302"/><rect fill="#F1F1F1" height="10" style="stroke:#181818;stroke-width:0.5;" width="15" x="192.6963" y="307"/><rect fill="#F1F1F1" height="2" style="stroke:#181818;stroke-width:0.5;" width="4" x="190.6963" y="309"/><rect fill="#F1F1F1" height="2" style="stroke:#181818;stroke-width:0.5;" width="4" x="190.6963" y="313"/><text fill="#000000" font-family="sans-serif" font-size="14" lengthAdjust="spacing" textLength="53.6963" x="134" y="336.5332">interface</text></g><!--entity domain1--><g id="elem_domain1"><rect fill="#F1F1F1" height="47.6094" rx="2.5" ry="2.5" style="stroke:#181818;stroke-width:0.5;" width="85.917" x="123" y="219"/><rect fill="#F1F1F1" height="10" style="stroke:#181818;stroke-width:0.5;" width="15" x="188.917" y="224"/><rect fill="#F1F1F1" height="2" style="stroke:#181818;stroke-width:0.5;" width="4" x="186.917" y="226"/><rect fill="#F1F1F1" height="2" style="stroke:#181818;stroke-width:0.5;" width="4" x="186.917" y="230"/><text fill="#000000" font-family="sans-serif" font-size="14" lengthAdjust="spacing" textLength="45.917" x="138" y="253.5332">domain</text></g><!--entity usecase1--><g id="elem_usecase1"><rect fill="#F1F1F1" height="47.6094" rx="2.5" ry="2.5" style="stroke:#181818;stroke-width:0.5;" width="92.1445" x="302" y="302"/><rect fill="#F1F1F1" height="10" style="stroke:#181818;stroke-width:0.5;" width="15" x="374.1445" y="307"/><rect fill="#F1F1F1" height="2" style="stroke:#181818;stroke-width:0.5;" width="4" x="372.1445" y="309"/><rect fill="#F1F1F1" height="2" style="stroke:#181818;stroke-width:0.5;" width="4" x="372.1445" y="313"/><text fill="#000000" font-family="sans-serif" font-size="14" lengthAdjust="spacing" textLength="52.1445" x="317" y="336.5332">usecase</text></g><!--entity infr1--><g id="elem_infr1"><rect fill="#F1F1F1" height="47.6094" rx="2.5" ry="2.5" style="stroke:#181818;stroke-width:0.5;" width="121.6963" x="287" y="219"/><rect fill="#F1F1F1" height="10" style="stroke:#181818;stroke-width:0.5;" width="15" x="388.6963" y="224"/><rect fill="#F1F1F1" height="2" style="stroke:#181818;stroke-width:0.5;" width="4" x="386.6963" y="226"/><rect fill="#F1F1F1" height="2" style="stroke:#181818;stroke-width:0.5;" width="4" x="386.6963" y="230"/><text fill="#000000" font-family="sans-serif" font-size="14" lengthAdjust="spacing" textLength="81.6963" x="302" y="253.5332">infrastructure</text></g><!--entity intr2--><g id="elem_intr2"><rect fill="#F1F1F1" height="47.6094" rx="2.5" ry="2.5" style="stroke:#181818;stroke-width:0.5;" width="93.6963" x="119" y="509"/><rect fill="#F1F1F1" height="10" style="stroke:#181818;stroke-width:0.5;" width="15" x="192.6963" y="514"/><rect fill="#F1F1F1" height="2" style="stroke:#181818;stroke-width:0.5;" width="4" x="190.6963" y="516"/><rect fill="#F1F1F1" height="2" style="stroke:#181818;stroke-width:0.5;" width="4" x="190.6963" y="520"/><text fill="#000000" font-family="sans-serif" font-size="14" lengthAdjust="spacing" textLength="53.6963" x="134" y="543.5332">interface</text></g><!--entity domain2--><g id="elem_domain2"><rect fill="#F1F1F1" height="47.6094" rx="2.5" ry="2.5" style="stroke:#181818;stroke-width:0.5;" width="85.917" x="123" y="426"/><rect fill="#F1F1F1" height="10" style="stroke:#181818;stroke-width:0.5;" width="15" x="188.917" y="431"/><rect fill="#F1F1F1" height="2" style="stroke:#181818;stroke-width:0.5;" width="4" x="186.917" y="433"/><rect fill="#F1F1F1" height="2" style="stroke:#181818;stroke-width:0.5;" width="4" x="186.917" y="437"/><text fill="#000000" font-family="sans-serif" font-size="14" lengthAdjust="spacing" textLength="45.917" x="138" y="460.5332">domain</text></g><!--entity usecase2--><g id="elem_usecase2"><rect fill="#F1F1F1" height="47.6094" rx="2.5" ry="2.5" style="stroke:#181818;stroke-width:0.5;" width="92.1445" x="302" y="509"/><rect fill="#F1F1F1" height="10" style="stroke:#181818;stroke-width:0.5;" width="15" x="374.1445" y="514"/><rect fill="#F1F1F1" height="2" style="stroke:#181818;stroke-width:0.5;" width="4" x="372.1445" y="516"/><rect fill="#F1F1F1" height="2" style="stroke:#181818;stroke-width:0.5;" width="4" x="372.1445" y="520"/><text fill="#000000" font-family="sans-serif" font-size="14" lengthAdjust="spacing" textLength="52.1445" x="317" y="543.5332">usecase</text></g><!--entity infr2--><g id="elem_infr2"><rect fill="#F1F1F1" height="47.6094" rx="2.5" ry="2.5" style="stroke:#181818;stroke-width:0.5;" width="121.6963" x="287" y="426"/><rect fill="#F1F1F1" height="10" style="stroke:#181818;stroke-width:0.5;" width="15" x="388.6963" y="431"/><rect fill="#F1F1F1" height="2" style="stroke:#181818;stroke-width:0.5;" width="4" x="386.6963" y="433"/><rect fill="#F1F1F1" height="2" style="stroke:#181818;stroke-width:0.5;" width="4" x="386.6963" y="437"/><text fill="#000000" font-family="sans-serif" font-size="14" lengthAdjust="spacing" textLength="81.6963" x="302" y="460.5332">infrastructure</text></g><!--entity midlware--><g id="elem_midlware"><rect fill="#F1F1F1" height="47.6094" rx="2.5" ry="2.5" style="stroke:#181818;stroke-width:0.5;" width="96.0137" x="118" y="1010"/><rect fill="#F1F1F1" height="10" style="stroke:#181818;stroke-width:0.5;" width="15" x="194.0137" y="1015"/><rect fill="#F1F1F1" height="2" style="stroke:#181818;stroke-width:0.5;" width="4" x="192.0137" y="1017"/><rect fill="#F1F1F1" height="2" style="stroke:#181818;stroke-width:0.5;" width="4" x="192.0137" y="1021"/><text fill="#000000" font-family="sans-serif" font-size="14" lengthAdjust="spacing" textLength="56.0137" x="133" y="1044.5332">midlware</text></g><!--entity domen--><g id="elem_domen"><rect fill="#F1F1F1" height="47.6094" rx="2.5" ry="2.5" style="stroke:#181818;stroke-width:0.5;" width="82.8066" x="124.5" y="927"/><rect fill="#F1F1F1" height="10" style="stroke:#181818;stroke-width:0.5;" width="15" x="187.3066" y="932"/><rect fill="#F1F1F1" height="2" style="stroke:#181818;stroke-width:0.5;" width="4" x="185.3066" y="934"/><rect fill="#F1F1F1" height="2" style="stroke:#181818;stroke-width:0.5;" width="4" x="185.3066" y="938"/><text fill="#000000" font-family="sans-serif" font-size="14" lengthAdjust="spacing" textLength="42.8066" x="139.5" y="961.5332">domen</text></g><!--entity utils--><g id="elem_utils"><rect fill="#F1F1F1" height="47.6094" rx="2.5" ry="2.5" style="stroke:#181818;stroke-width:0.5;" width="64.8965" x="133.5" y="844"/><rect fill="#F1F1F1" height="10" style="stroke:#181818;stroke-width:0.5;" width="15" x="178.3965" y="849"/><rect fill="#F1F1F1" height="2" style="stroke:#181818;stroke-width:0.5;" width="4" x="176.3965" y="851"/><rect fill="#F1F1F1" height="2" style="stroke:#181818;stroke-width:0.5;" width="4" x="176.3965" y="855"/><text fill="#000000" font-family="sans-serif" font-size="14" lengthAdjust="spacing" textLength="24.8965" x="148.5" y="878.5332">utils</text></g><!--entity errors--><g id="elem_errors"><rect fill="#F1F1F1" height="47.6094" rx="2.5" ry="2.5" style="stroke:#181818;stroke-width:0.5;" width="76.5586" x="309.5" y="1010"/><rect fill="#F1F1F1" height="10" style="stroke:#181818;stroke-width:0.5;" width="15" x="366.0586" y="1015"/><rect fill="#F1F1F1" height="2" style="stroke:#181818;stroke-width:0.5;" width="4" x="364.0586" y="1017"/><rect fill="#F1F1F1" height="2" style="stroke:#181818;stroke-width:0.5;" width="4" x="364.0586" y="1021"/><text fill="#000000" font-family="sans-serif" font-size="14" lengthAdjust="spacing" textLength="36.5586" x="324.5" y="1044.5332">errors</text></g><!--entity constants--><g id="elem_constants"><rect fill="#F1F1F1" height="47.6094" rx="2.5" ry="2.5" style="stroke:#181818;stroke-width:0.5;" width="99.9238" x="298" y="927"/><rect fill="#F1F1F1" height="10" style="stroke:#181818;stroke-width:0.5;" width="15" x="377.9238" y="932"/><rect fill="#F1F1F1" height="2" style="stroke:#181818;stroke-width:0.5;" width="4" x="375.9238" y="934"/><rect fill="#F1F1F1" height="2" style="stroke:#181818;stroke-width:0.5;" width="4" x="375.9238" y="938"/><text fill="#000000" font-family="sans-serif" font-size="14" lengthAdjust="spacing" textLength="59.9238" x="313" y="961.5332">constants</text></g><!--entity logger--><g id="elem_logger"><rect fill="#F1F1F1" height="47.6094" rx="2.5" ry="2.5" style="stroke:#181818;stroke-width:0.5;" width="78.917" x="308.5" y="844"/><rect fill="#F1F1F1" height="10" style="stroke:#181818;stroke-width:0.5;" width="15" x="367.417" y="849"/><rect fill="#F1F1F1" height="2" style="stroke:#181818;stroke-width:0.5;" width="4" x="365.417" y="851"/><rect fill="#F1F1F1" height="2" style="stroke:#181818;stroke-width:0.5;" width="4" x="365.417" y="855"/><text fill="#000000" font-family="sans-serif" font-size="14" lengthAdjust="spacing" textLength="38.917" x="323.5" y="878.5332">logger</text></g><!--SRC=[dLD1JeKm4DrpYgOtW1iOuyALneNxIHduZT0Xqo6Q61BZHJo56nUUWNyZo-UZO4fGPZMTz-RDvBMji10bfDYM1r6vPJHYoIN0OWimedJ_TdpfF_lt_kFugjLpea8KLEN8Ib_SNeUIEjNczVjqOavXg6x8eGk2rWboq4QzO4oztqp_MsE80pv1IKvf0VyG8wmEK-1LE76wrP9J3TQT-6EwsT5wDE374USytLwiOF32hP6Mf-sAo7RTkWUEmYLP0yEDxV8Y-xSNsGulifrUP1jUTCdVzDPerA23nlxWes2tUEANDtTNSszd_RNDgqUO3rWwXowAj68h7qMGcJWE6N9UOFWKCRIYiaJMv_MxBm00]--></g></svg>