<svg xmlns="http://www.w3.org/2000/svg" xmlns:xlink="http://www.w3.org/1999/xlink" contentStyleType="text/css" data-diagram-type="DESCRIPTION" height="1079px" preserveAspectRatio="none" style="width:566px;height:1079px;background:#FFFFFF;" version="1.1" viewBox="0 0 566 1079" width="566px" zoomAndPan="magnify"><defs/><g><!--cluster The scheme of the project idea--><g class="cluster" data-entity="The scheme of the project idea" data-source-line="2" data-uid="ent0002" id="cluster_The scheme of the project idea"><rect fill="none" height="1066" rx="2.5" ry="2.5" style="stroke:#181818;stroke-width:1;" width="547.92" x="7" y="7"/><polygon fill="none" points="537.92,12,537.92,26,549.92,26,549.92,18,543.92,12,537.92,12" style="stroke:#181818;stroke-width:1;"/><line style="stroke:#181818;stroke-width:1;" x1="543.92" x2="543.92" y1="12" y2="18"/><line style="stroke:#181818;stroke-width:1;" x1="549.92" x2="543.92" y1="18" y2="18"/><text fill="#000000" font-family="sans-serif" font-size="14" font-weight="bold" lengthAdjust="spacing" textLength="245.0137" x="158.4532" y="21.9951">The scheme of the project idea</text></g><!--cluster API--><g class="cluster" data-entity="API" data-source-line="3" data-uid="ent0003" id="cluster_API"><path d="M33.5,333 L60.8047,333 A3.75,3.75 0 0 1 63.3047,335.5 L70.3047,355.2969 L528.42,355.2969 A2.5,2.5 0 0 1 530.92,357.7969 L530.92,1046.5 A2.5,2.5 0 0 1 528.42,1049 L33.5,1049 A2.5,2.5 0 0 1 31,1046.5 L31,335.5 A2.5,2.5 0 0 1 33.5,333" fill="none" style="stroke:#000000;stroke-width:1.5;"/><line style="stroke:#000000;stroke-width:1.5;" x1="31" x2="70.3047" y1="355.2969" y2="355.2969"/><text fill="#000000" font-family="sans-serif" font-size="14" font-weight="bold" lengthAdjust="spacing" textLength="26.3047" x="35" y="347.9951">API</text></g><!--cluster V1--><g class="cluster" data-entity="V1" data-source-line="4" data-uid="ent0004" id="cluster_V1"><path d="M57.5,376 L79.0762,376 A3.75,3.75 0 0 1 81.5762,378.5 L88.5762,398.2969 L504.42,398.2969 A2.5,2.5 0 0 1 506.92,400.7969 L506.92,1022.5 A2.5,2.5 0 0 1 504.42,1025 L57.5,1025 A2.5,2.5 0 0 1 55,1022.5 L55,378.5 A2.5,2.5 0 0 1 57.5,376" fill="none" style="stroke:#000000;stroke-width:1.5;"/><line style="stroke:#000000;stroke-width:1.5;" x1="55" x2="88.5762" y1="398.2969" y2="398.2969"/><text fill="#000000" font-family="sans-serif" font-size="14" font-weight="bold" lengthAdjust="spacing" textLength="20.5762" x="59" y="390.9951">V1</text></g><!--cluster components--><g class="cluster" data-entity="components" data-source-line="6" data-uid="ent0006" id="cluster_components"><path d="M81.5,554 L179.0986,554 A3.75,3.75 0 0 1 181.5986,556.5 L188.5986,576.2969 L480.42,576.2969 A2.5,2.5 0 0 1 482.92,578.7969 L482.92,998.5 A2.5,2.5 0 0 1 480.42,1001 L81.5,1001 A2.5,2.5 0 0 1 79,998.5 L79,556.5 A2.5,2.5 0 0 1 81.5,554" fill="none" style="stroke:#000000;stroke-width:1.5;"/><line style="stroke:#000000;stroke-width:1.5;" x1="79" x2="188.5986" y1="576.2969" y2="576.2969"/><text fill="#000000" font-family="sans-serif" font-size="14" font-weight="bold" lengthAdjust="spacing" textLength="96.5986" x="83" y="568.9951">components</text></g><!--cluster notification--><g class="cluster" data-entity="notification" data-source-line="7" data-uid="ent0007" id="cluster_notification"><path d="M105.5,799 L197.2881,799 A3.75,3.75 0 0 1 199.7881,801.5 L206.7881,821.2969 L252.74,821.2969 A2.5,2.5 0 0 1 255.24,823.7969 L255.24,974.5 A2.5,2.5 0 0 1 252.74,977 L105.5,977 A2.5,2.5 0 0 1 103,974.5 L103,801.5 A2.5,2.5 0 0 1 105.5,799" fill="none" style="stroke:#000000;stroke-width:1.5;"/><line style="stroke:#000000;stroke-width:1.5;" x1="103" x2="206.7881" y1="821.2969" y2="821.2969"/><text fill="#000000" font-family="sans-serif" font-size="14" font-weight="bold" lengthAdjust="spacing" textLength="90.7881" x="107" y="813.9951">notification</text></g><!--cluster task--><g class="cluster" data-entity="task" data-source-line="11" data-uid="ent0010" id="cluster_task"><path d="M114.4,597 L149.1832,597 A3.75,3.75 0 0 1 151.6832,599.5 L158.6832,619.2969 L456.42,619.2969 A2.5,2.5 0 0 1 458.92,621.7969 L458.92,772.5 A2.5,2.5 0 0 1 456.42,775 L114.4,775 A2.5,2.5 0 0 1 111.9,772.5 L111.9,599.5 A2.5,2.5 0 0 1 114.4,597" fill="none" style="stroke:#000000;stroke-width:1.5;"/><line style="stroke:#000000;stroke-width:1.5;" x1="111.9" x2="158.6832" y1="619.2969" y2="619.2969"/><text fill="#000000" font-family="sans-serif" font-size="14" font-weight="bold" lengthAdjust="spacing" textLength="33.7832" x="115.9" y="611.9951">task</text></g><!--cluster CORE--><g class="cluster" data-entity="CORE" data-source-line="22" data-uid="ent0017" id="cluster_CORE"><path d="M113.27,50 L156.7895,50 A3.75,3.75 0 0 1 159.2895,52.5 L166.2895,72.2969 L442.56,72.2969 A2.5,2.5 0 0 1 445.06,74.7969 L445.06,306.5 A2.5,2.5 0 0 1 442.56,309 L113.27,309 A2.5,2.5 0 0 1 110.77,306.5 L110.77,52.5 A2.5,2.5 0 0 1 113.27,50" fill="none" style="stroke:#000000;stroke-width:1.5;"/><line style="stroke:#000000;stroke-width:1.5;" x1="110.77" x2="166.2895" y1="72.2969" y2="72.2969"/><text fill="#000000" font-family="sans-serif" font-size="14" font-weight="bold" lengthAdjust="spacing" textLength="42.5195" x="114.77" y="64.9951">CORE</text></g><!--entity interface--><g class="entity" data-entity="interface" data-source-line="5" data-uid="ent0005" id="entity_interface"><rect fill="#F1F1F1" height="46.2969" rx="2.5" ry="2.5" style="stroke:#181818;stroke-width:0.5;" width="102.4395" x="127.9" y="491.85"/><rect fill="#F1F1F1" height="10" style="stroke:#181818;stroke-width:0.5;" width="15" x="210.3395" y="496.85"/><rect fill="#F1F1F1" height="2" style="stroke:#181818;stroke-width:0.5;" width="4" x="208.3395" y="498.85"/><rect fill="#F1F1F1" height="2" style="stroke:#181818;stroke-width:0.5;" width="4" x="208.3395" y="502.85"/><text fill="#000000" font-family="sans-serif" font-size="14" lengthAdjust="spacing" textLength="62.4395" x="142.9" y="524.8451">interface</text></g><!--entity infrastructure--><g class="entity" data-entity="infrastructure" data-source-line="18" data-uid="ent0015" id="entity_infrastructure"><rect fill="#F1F1F1" height="46.2969" rx="2.5" ry="2.5" style="stroke:#181818;stroke-width:0.5;" width="135.8672" x="111.19" y="410.85"/><rect fill="#F1F1F1" height="10" style="stroke:#181818;stroke-width:0.5;" width="15" x="227.0572" y="415.85"/><rect fill="#F1F1F1" height="2" style="stroke:#181818;stroke-width:0.5;" width="4" x="225.0572" y="417.85"/><rect fill="#F1F1F1" height="2" style="stroke:#181818;stroke-width:0.5;" width="4" x="225.0572" y="421.85"/><text fill="#000000" font-family="sans-serif" font-size="14" lengthAdjust="spacing" textLength="95.8672" x="126.19" y="443.8451">infrastructure</text></g><!--entity openapi--><g class="entity" data-entity="openapi" data-source-line="19" data-uid="ent0016" id="entity_openapi"><rect fill="#F1F1F1" height="46.2969" rx="2.5" ry="2.5" style="stroke:#181818;stroke-width:0.5;" width="96.2939" x="326.84" y="491.85"/><rect fill="#F1F1F1" height="10" style="stroke:#181818;stroke-width:0.5;" width="15" x="403.1339" y="496.85"/><rect fill="#F1F1F1" height="2" style="stroke:#181818;stroke-width:0.5;" width="4" x="401.1339" y="498.85"/><rect fill="#F1F1F1" height="2" style="stroke:#181818;stroke-width:0.5;" width="4" x="401.1339" y="502.85"/><text fill="#000000" font-family="sans-serif" font-size="14" lengthAdjust="spacing" textLength="56.2939" x="341.84" y="524.8451">openapi</text></g><!--entity subscribers2--><g class="entity" data-entity="subscribers2" data-source-line="8" data-uid="ent0008" id="entity_subscribers2"><rect fill="#F1F1F1" height="46.2969" rx="2.5" ry="2.5" style="stroke:#181818;stroke-width:0.5;" width="120.2402" x="119" y="914.85"/><rect fill="#F1F1F1" height="10" style="stroke:#181818;stroke-width:0.5;" width="15" x="219.2402" y="919.85"/><rect fill="#F1F1F1" height="2" style="stroke:#181818;stroke-width:0.5;" width="4" x="217.2402" y="921.85"/><rect fill="#F1F1F1" height="2" style="stroke:#181818;stroke-width:0.5;" width="4" x="217.2402" y="925.85"/><text fill="#000000" font-family="sans-serif" font-size="14" lengthAdjust="spacing" textLength="80.2402" x="134" y="947.8451">subscribers</text></g><!--entity usecase2--><g class="entity" data-entity="usecase2" data-source-line="9" data-uid="ent0009" id="entity_usecase2"><rect fill="#F1F1F1" height="46.2969" rx="2.5" ry="2.5" style="stroke:#181818;stroke-width:0.5;" width="96.9639" x="130.64" y="833.85"/><rect fill="#F1F1F1" height="10" style="stroke:#181818;stroke-width:0.5;" width="15" x="207.6039" y="838.85"/><rect fill="#F1F1F1" height="2" style="stroke:#181818;stroke-width:0.5;" width="4" x="205.6039" y="840.85"/><rect fill="#F1F1F1" height="2" style="stroke:#181818;stroke-width:0.5;" width="4" x="205.6039" y="844.85"/><text fill="#000000" font-family="sans-serif" font-size="14" lengthAdjust="spacing" textLength="56.9639" x="145.64" y="866.8451">usecase</text></g><!--entity intr1--><g class="entity" data-entity="intr1" data-source-line="12" data-uid="ent0011" id="entity_intr1"><rect fill="#F1F1F1" height="46.2969" rx="2.5" ry="2.5" style="stroke:#181818;stroke-width:0.5;" width="102.4395" x="127.9" y="712.85"/><rect fill="#F1F1F1" height="10" style="stroke:#181818;stroke-width:0.5;" width="15" x="210.3395" y="717.85"/><rect fill="#F1F1F1" height="2" style="stroke:#181818;stroke-width:0.5;" width="4" x="208.3395" y="719.85"/><rect fill="#F1F1F1" height="2" style="stroke:#181818;stroke-width:0.5;" width="4" x="208.3395" y="723.85"/><text fill="#000000" font-family="sans-serif" font-size="14" lengthAdjust="spacing" textLength="62.4395" x="142.9" y="745.8451">interface</text></g><!--entity domain1--><g class="entity" data-entity="domain1" data-source-line="13" data-uid="ent0012" id="entity_domain1"><rect fill="#F1F1F1" height="46.2969" rx="2.5" ry="2.5" style="stroke:#181818;stroke-width:0.5;" width="92.4316" x="132.9" y="631.85"/><rect fill="#F1F1F1" height="10" style="stroke:#181818;stroke-width:0.5;" width="15" x="205.3316" y="636.85"/><rect fill="#F1F1F1" height="2" style="stroke:#181818;stroke-width:0.5;" width="4" x="203.3316" y="638.85"/><rect fill="#F1F1F1" height="2" style="stroke:#181818;stroke-width:0.5;" width="4" x="203.3316" y="642.85"/><text fill="#000000" font-family="sans-serif" font-size="14" lengthAdjust="spacing" textLength="52.4316" x="147.9" y="664.8451">domain</text></g><!--entity usecase1--><g class="entity" data-entity="usecase1" data-source-line="14" data-uid="ent0013" id="entity_usecase1"><rect fill="#F1F1F1" height="46.2969" rx="2.5" ry="2.5" style="stroke:#181818;stroke-width:0.5;" width="96.9639" x="326.51" y="712.85"/><rect fill="#F1F1F1" height="10" style="stroke:#181818;stroke-width:0.5;" width="15" x="403.4739" y="717.85"/><rect fill="#F1F1F1" height="2" style="stroke:#181818;stroke-width:0.5;" width="4" x="401.4739" y="719.85"/><rect fill="#F1F1F1" height="2" style="stroke:#181818;stroke-width:0.5;" width="4" x="401.4739" y="723.85"/><text fill="#000000" font-family="sans-serif" font-size="14" lengthAdjust="spacing" textLength="56.9639" x="341.51" y="745.8451">usecase</text></g><!--entity infr1--><g class="entity" data-entity="infr1" data-source-line="15" data-uid="ent0014" id="entity_infr1"><rect fill="#F1F1F1" height="46.2969" rx="2.5" ry="2.5" style="stroke:#181818;stroke-width:0.5;" width="135.8672" x="307.05" y="631.85"/><rect fill="#F1F1F1" height="10" style="stroke:#181818;stroke-width:0.5;" width="15" x="422.9172" y="636.85"/><rect fill="#F1F1F1" height="2" style="stroke:#181818;stroke-width:0.5;" width="4" x="420.9172" y="638.85"/><rect fill="#F1F1F1" height="2" style="stroke:#181818;stroke-width:0.5;" width="4" x="420.9172" y="642.85"/><text fill="#000000" font-family="sans-serif" font-size="14" lengthAdjust="spacing" textLength="95.8672" x="322.05" y="664.8451">infrastructure</text></g><!--entity midlware--><g class="entity" data-entity="midlware" data-source-line="23" data-uid="ent0018" id="entity_midlware"><rect fill="#F1F1F1" height="46.2969" rx="2.5" ry="2.5" style="stroke:#181818;stroke-width:0.5;" width="104.7021" x="126.77" y="246.85"/><rect fill="#F1F1F1" height="10" style="stroke:#181818;stroke-width:0.5;" width="15" x="211.4721" y="251.85"/><rect fill="#F1F1F1" height="2" style="stroke:#181818;stroke-width:0.5;" width="4" x="209.4721" y="253.85"/><rect fill="#F1F1F1" height="2" style="stroke:#181818;stroke-width:0.5;" width="4" x="209.4721" y="257.85"/><text fill="#000000" font-family="sans-serif" font-size="14" lengthAdjust="spacing" textLength="64.7021" x="141.77" y="279.8451">midlware</text></g><!--entity domen--><g class="entity" data-entity="domen" data-source-line="24" data-uid="ent0019" id="entity_domen"><rect fill="#F1F1F1" height="46.2969" rx="2.5" ry="2.5" style="stroke:#181818;stroke-width:0.5;" width="88.5762" x="134.83" y="165.85"/><rect fill="#F1F1F1" height="10" style="stroke:#181818;stroke-width:0.5;" width="15" x="203.4062" y="170.85"/><rect fill="#F1F1F1" height="2" style="stroke:#181818;stroke-width:0.5;" width="4" x="201.4062" y="172.85"/><rect fill="#F1F1F1" height="2" style="stroke:#181818;stroke-width:0.5;" width="4" x="201.4062" y="176.85"/><text fill="#000000" font-family="sans-serif" font-size="14" lengthAdjust="spacing" textLength="48.5762" x="149.83" y="198.8451">domen</text></g><!--entity utils--><g class="entity" data-entity="utils" data-source-line="25" data-uid="ent0020" id="entity_utils"><rect fill="#F1F1F1" height="46.2969" rx="2.5" ry="2.5" style="stroke:#181818;stroke-width:0.5;" width="69.4355" x="144.4" y="84.85"/><rect fill="#F1F1F1" height="10" style="stroke:#181818;stroke-width:0.5;" width="15" x="193.8355" y="89.85"/><rect fill="#F1F1F1" height="2" style="stroke:#181818;stroke-width:0.5;" width="4" x="191.8355" y="91.85"/><rect fill="#F1F1F1" height="2" style="stroke:#181818;stroke-width:0.5;" width="4" x="191.8355" y="95.85"/><text fill="#000000" font-family="sans-serif" font-size="14" lengthAdjust="spacing" textLength="29.4355" x="159.4" y="117.8451">utils</text></g><!--entity errors--><g class="entity" data-entity="errors" data-source-line="26" data-uid="ent0021" id="entity_errors"><rect fill="#F1F1F1" height="46.2969" rx="2.5" ry="2.5" style="stroke:#181818;stroke-width:0.5;" width="81.7402" x="334.12" y="246.85"/><rect fill="#F1F1F1" height="10" style="stroke:#181818;stroke-width:0.5;" width="15" x="395.8602" y="251.85"/><rect fill="#F1F1F1" height="2" style="stroke:#181818;stroke-width:0.5;" width="4" x="393.8602" y="253.85"/><rect fill="#F1F1F1" height="2" style="stroke:#181818;stroke-width:0.5;" width="4" x="393.8602" y="257.85"/><text fill="#000000" font-family="sans-serif" font-size="14" lengthAdjust="spacing" textLength="41.7402" x="349.12" y="279.8451">errors</text></g><!--entity constants--><g class="entity" data-entity="constants" data-source-line="27" data-uid="ent0022" id="entity_constants"><rect fill="#F1F1F1" height="46.2969" rx="2.5" ry="2.5" style="stroke:#181818;stroke-width:0.5;" width="108.1543" x="320.91" y="165.85"/><rect fill="#F1F1F1" height="10" style="stroke:#181818;stroke-width:0.5;" width="15" x="409.0643" y="170.85"/><rect fill="#F1F1F1" height="2" style="stroke:#181818;stroke-width:0.5;" width="4" x="407.0643" y="172.85"/><rect fill="#F1F1F1" height="2" style="stroke:#181818;stroke-width:0.5;" width="4" x="407.0643" y="176.85"/><text fill="#000000" font-family="sans-serif" font-size="14" lengthAdjust="spacing" textLength="68.1543" x="335.91" y="198.8451">constants</text></g><!--entity logger--><g class="entity" data-entity="logger" data-source-line="28" data-uid="ent0023" id="entity_logger"><rect fill="#F1F1F1" height="46.2969" rx="2.5" ry="2.5" style="stroke:#181818;stroke-width:0.5;" width="84.5977" x="332.69" y="84.85"/><rect fill="#F1F1F1" height="10" style="stroke:#181818;stroke-width:0.5;" width="15" x="397.2877" y="89.85"/><rect fill="#F1F1F1" height="2" style="stroke:#181818;stroke-width:0.5;" width="4" x="395.2877" y="91.85"/><rect fill="#F1F1F1" height="2" style="stroke:#181818;stroke-width:0.5;" width="4" x="395.2877" y="95.85"/><text fill="#000000" font-family="sans-serif" font-size="14" lengthAdjust="spacing" textLength="44.5977" x="347.69" y="117.8451">logger</text></g><!--SRC=[dL91JiGm3Bpt5LP_K7w040TE88IuPrEdDRHnvRZYWFftqkwMJPUikYAds3FZcLZfq2aeWr3JAjGaQ9NO5qQKdB4AvLkB46oBFG8xq5WDmX-H1bIZAU6xW7WSTpKAbFSlJx45Io_jlrShSpsM-u4z-cX1Nb6Y6vORnghzPORB6IdBSqnCripnSxmBpp0UWXKweCIf9a1It-rfnu3M15nqf_jVpNGrgPhmUKF2yrPcdrX9jIUfkJVa5_xnMltZATL-C2Scg8nMHrdJkKowxGgcuhPvrsWye3S3dV7Zm6dp_nwUNn_JtIRwdkhkowG6sysXpoAZKXUo28gmv27BFgYPVsmExRXfKCfJ_Ea7]--></g></svg>